<mxfile host="app.diagrams.net" modified="2024-01-11T17:10:20.395Z" agent="Mozilla/5.0 (Windows NT 10.0; Win64; x64) AppleWebKit/537.36 (KHTML, like Gecko) Chrome/120.0.0.0 Safari/537.36" version="22.1.18" etag="cnQGEDoAnC5OHS7rhIri" type="github">
  <diagram name="PÃ¡gina-1" id="DVmdg-b4EaAeEagpju6H">
    <mxGraphModel>
      <root>
        <mxCell id="0" />
        <mxCell id="1" parent="0" />
      </root>
    </mxGraphModel>
  </diagram>
</mxfile>
